<svg xmlns="http://www.w3.org/2000/svg" width="24" height="24" viewBox="0 0 24 24">
  <g id="Group_6155" data-name="Group 6155" transform="translate(-1095.302 -2416)">
    <g id="Group_3450" data-name="Group 3450" transform="translate(1095.302 2416)">
      <path id="Path_523" data-name="Path 523" d="M0,0H24V24H0Z" fill="rgba(0,0,0,0)"/>
      <path id="Subtraction_1" data-name="Subtraction 1" d="M1246.116,1452.344a1.1,1.1,0,0,1-1.115-1.079v-16.186a1.1,1.1,0,0,1,1.115-1.079h8.006a1.1,1.1,0,0,1,1.093.863l.267,1.3h5.13a1.1,1.1,0,0,1,1.115,1.079v8.632a1.1,1.1,0,0,1-1.115,1.079h-5.776a1.1,1.1,0,0,1-1.093-.863l-.268-1.3h-6.244v6.475A1.1,1.1,0,0,1,1246.116,1452.344Zm8.662-9.943h0c.015,1.948.649,2.216,1.333,2.216h3.3v-6.2h-5.3c0-.156.007-.312.012-.463v-.007c.022-.6.043-1.172-.239-1.464a.824.824,0,0,0-.626-.216h-6v6.2h7a2.047,2.047,0,0,0,.516-.067Z" transform="translate(-1240.96 -1430.768)" fill="#222"/>
    </g>
  </g>
</svg>
