<svg id="Home" xmlns="http://www.w3.org/2000/svg" width="24" height="24" viewBox="0 0 24 24">
  <g id="BG" transform="translate(24 24) rotate(180)" fill="#fff" stroke="#707070" stroke-width="1" opacity="0">
    <rect width="24" height="24" stroke="none"/>
    <rect x="0.5" y="0.5" width="23" height="23" fill="none"/>
  </g>
  <path id="Icon" d="M20,8h0L14,2.74a3,3,0,0,0-4,0L4,8a3,3,0,0,0-1,2.26V19a3,3,0,0,0,3,3H18a3,3,0,0,0,3-3V10.25A3,3,0,0,0,20,8ZM14,20H10V15a1,1,0,0,1,1-1h2a1,1,0,0,1,1,1Zm5-1a1,1,0,0,1-1,1H16V15a3,3,0,0,0-3-3H11a3,3,0,0,0-3,3v5H6a1,1,0,0,1-1-1V10.25a1,1,0,0,1,.34-.75l6-5.25a1,1,0,0,1,1.32,0l6,5.25a1,1,0,0,1,.34.75Z" transform="translate(0 0.024)" fill="#222"/>
</svg>
