<svg xmlns="http://www.w3.org/2000/svg" width="14.995" height="15" viewBox="0 0 14.995 15">
  <path id="location-arrow" d="M16.359,2.643a2.167,2.167,0,0,0-2.249-.532L3.5,5.657a2.174,2.174,0,0,0-.09,4.1l3.929,1.5h0a.7.7,0,0,1,.4.39l1.5,3.936a2.152,2.152,0,0,0,2.032,1.41h.052a2.159,2.159,0,0,0,2.017-1.5L16.883,4.87A2.167,2.167,0,0,0,16.359,2.643ZM15.5,4.4,11.912,15.029a.66.66,0,0,1-.63.465.69.69,0,0,1-.652-.435l-1.5-3.936a2.182,2.182,0,0,0-1.252-1.26l-3.936-1.5A.675.675,0,0,1,3.5,7.712a.66.66,0,0,1,.465-.63L14.6,3.535a.682.682,0,0,1,.9.862Z" transform="translate(-2.002 -1.994)" fill="#222"/>
</svg>
