<svg xmlns="http://www.w3.org/2000/svg" width="12.673" height="15" viewBox="0 0 12.673 15">
  <path id="map-marker-alt" d="M16.142,7.673A6.335,6.335,0,1,0,5.363,12.764l3.951,3.958a.745.745,0,0,0,1.059,0l3.936-3.958A6.306,6.306,0,0,0,16.142,7.673Zm-2.877,4.04L9.836,15.142,6.407,11.713A4.838,4.838,0,0,1,5.013,7.822a4.9,4.9,0,0,1,2.154-3.6,4.823,4.823,0,0,1,5.337,0,4.9,4.9,0,0,1,2.154,3.585,4.838,4.838,0,0,1-1.394,3.906ZM9.836,4.967A3.354,3.354,0,1,0,13.19,8.322,3.354,3.354,0,0,0,9.836,4.967Zm0,5.218A1.864,1.864,0,1,1,11.7,8.322a1.864,1.864,0,0,1-1.864,1.864Z" transform="translate(-3.5 -1.943)" fill="#222"/>
</svg>
