<svg xmlns="http://www.w3.org/2000/svg" width="203" height="66" viewBox="0 0 203 66">
  <g id="Group_7081" data-name="Group 7081" transform="translate(-6504 13919)">
    <rect id="Rectangle_3359" data-name="Rectangle 3359" width="203" height="66" transform="translate(6504 -13919)" opacity="0"/>
    <g id="spolto-blue" transform="translate(6494.374 -13926.277)">
      <path id="Path_826" data-name="Path 826" d="M202.8,52.9a16.433,16.433,0,0,1-1.4,6.987,15.372,15.372,0,0,1-3.8,5.152,16.508,16.508,0,0,1-5.524,3.2,20.22,20.22,0,0,1-13.126,0,16.219,16.219,0,0,1-5.5-3.2,15.613,15.613,0,0,1-3.768-5.152,16.434,16.434,0,0,1-1.4-6.987,16.084,16.084,0,0,1,1.4-6.88,15.339,15.339,0,0,1,3.768-5.1,16.084,16.084,0,0,1,5.487-3.144,20.723,20.723,0,0,1,13.126,0,16.369,16.369,0,0,1,5.524,3.135,15.111,15.111,0,0,1,3.8,5.1A16.083,16.083,0,0,1,202.8,52.9Zm-17.328-4.951a4.542,4.542,0,0,0-3.545,1.5,5.073,5.073,0,0,0-1.351,3.507,5.152,5.152,0,0,0,1.4,3.629,5,5,0,0,0,7.136,0,5.152,5.152,0,0,0,1.4-3.629,4.947,4.947,0,0,0-1.4-3.507A4.714,4.714,0,0,0,185.474,47.945Z" transform="translate(-80.481 -11.984)" fill="#0045fb"/>
      <path id="Path_827" data-name="Path 827" d="M378.041,52.9a16.434,16.434,0,0,1-1.4,6.987,15.371,15.371,0,0,1-3.8,5.152,16.507,16.507,0,0,1-5.524,3.2,20.22,20.22,0,0,1-13.126,0,16.219,16.219,0,0,1-5.5-3.2,15.614,15.614,0,0,1-3.768-5.152,16.434,16.434,0,0,1-1.4-6.987,16.083,16.083,0,0,1,1.4-6.88,15.339,15.339,0,0,1,3.768-5.1,16.083,16.083,0,0,1,5.487-3.144,20.723,20.723,0,0,1,13.126,0,16.368,16.368,0,0,1,5.524,3.135,15.111,15.111,0,0,1,3.8,5.1A16.084,16.084,0,0,1,378.041,52.9Zm-17.328-4.951a4.528,4.528,0,0,0-3.54,1.5,5.054,5.054,0,0,0-1.355,3.507,5.151,5.151,0,0,0,1.4,3.629,5,5,0,0,0,7.136,0,5.152,5.152,0,0,0,1.4-3.629,4.947,4.947,0,0,0-1.4-3.507,4.714,4.714,0,0,0-3.638-1.5Z" transform="translate(-174.095 -11.984)" fill="#0045fb"/>
      <path id="Path_828" data-name="Path 828" d="M263.5,55.138V15.326c0-.769-.405-1.164-1.067-1.02L251,16.5c-.615.121-1.085.508-1.081,1.081V55a1.029,1.029,0,0,0,1.123,1.169h11.524C263.24,56.167,263.5,55.758,263.5,55.138Z" transform="translate(-124.086 0)" fill="#0045fb"/>
      <path id="Path_829" data-name="Path 829" d="M121.545,47.5a16.275,16.275,0,0,0-2.622-5.068A13.168,13.168,0,0,0,114.6,38.8a12.5,12.5,0,0,0-5.985-1.4,12,12,0,0,0-4.607.978c-1.085.466-2.65,1.8-3.153,1.8h-.992v-.838c0-.624-.275-1.1-.894-1.118H88.436a.983.983,0,0,0-1.062,1.062V78.234a.974.974,0,0,0,1.22,1.039l11.268-1.7a.932.932,0,0,0,.7-1.076V66.925h.834c.373,0,1.8,1.155,2.851,1.556a12.278,12.278,0,0,0,4.43.834,12.409,12.409,0,0,0,5.962-1.4,13.159,13.159,0,0,0,4.285-3.657,16.508,16.508,0,0,0,2.618-5.152,19.7,19.7,0,0,0,.894-5.874A18.953,18.953,0,0,0,121.545,47.5ZM108.852,56.91a4.607,4.607,0,0,1-3.684,1.467,4.938,4.938,0,0,1-3.773-1.5,5.124,5.124,0,0,1-1.4-3.629,4.97,4.97,0,0,1,5.184-5.007,4.564,4.564,0,0,1,3.684,1.5,5.273,5.273,0,0,1,1.262,3.512A5.4,5.4,0,0,1,108.852,56.91Z" transform="translate(-37.257 -12.355)" fill="#0045fb"/>
      <path id="Path_830" data-name="Path 830" d="M45.124,54.758a9.06,9.06,0,0,0-2.292-2.911A12.982,12.982,0,0,0,39.6,49.89a18.432,18.432,0,0,0-3.689-1.137,22.279,22.279,0,0,1-3.512-.862c-.508-.228-.759-.545-.759-.932a1.057,1.057,0,0,1,.675-1.076,4.6,4.6,0,0,1,1.714-.321,9.637,9.637,0,0,1,3.125.55,10.564,10.564,0,0,1,2.268,1.025.522.522,0,0,0,.675-.154l5.124-6.135a1.479,1.479,0,0,0-.4-2.329,23.193,23.193,0,0,0-4.537-1.826,25.684,25.684,0,0,0-7.415-1.1,18.7,18.7,0,0,0-4.691.657,15.469,15.469,0,0,0-4.6,2.022,11.524,11.524,0,0,0-3.493,3.587,9.87,9.87,0,0,0-1.4,5.329,8.79,8.79,0,0,0,.857,4.015,9.609,9.609,0,0,0,2.175,2.851,11.226,11.226,0,0,0,2.911,1.863,18.041,18.041,0,0,0,3.125,1.076,30.874,30.874,0,0,1,3.95,1.132c.759.307,1.137.727,1.137,1.258a1.011,1.011,0,0,1-.606.987,3.5,3.5,0,0,1-1.4.275,9.9,9.9,0,0,1-3.829-.829A10.364,10.364,0,0,1,24.1,58.2a.4.4,0,0,0-.554.047l-5.492,6.321a1.518,1.518,0,0,0,.256,2.329,20.226,20.226,0,0,0,5.268,2.161,28.516,28.516,0,0,0,8.193,1.188,20.816,20.816,0,0,0,4.76-.582,14.948,14.948,0,0,0,4.607-1.9,10.825,10.825,0,0,0,3.475-3.521,10.154,10.154,0,0,0,1.374-5.45A9.064,9.064,0,0,0,45.124,54.758Z" transform="translate(0 -11.386)" fill="#0045fb"/>
      <path id="Path_831" data-name="Path 831" d="M309.942,52.723c-.158.033-.28.056-.466.084a5.59,5.59,0,0,1-1.127.07,4.015,4.015,0,0,1-2.618-.778,3.615,3.615,0,0,1-.932-2.962V40.613l5.454-.5c.545-.047,1.113-.284,1.113-.88V32.792c0-.717-.419-1.053-.908-1.015l-5.687.5v-6.26c0-.894-.368-1.141-.932-1.076l-10.876,1.886a1.137,1.137,0,0,0-1.062,1.132V33.3l-3.358.293c-.643.065-.843.419-.843,1.025v6.386c0,.615.224.932.932.932l3.326-.312V51.876q0,5.524,2.939,8.147t9.036,2.618a26.084,26.084,0,0,0,3.945-.284,11.776,11.776,0,0,0,1.439-.3,1.91,1.91,0,0,0,1.467-1.7V53.31a.638.638,0,0,0-.843-.587Z" transform="translate(-144.274 -5.69)" fill="#0045fb"/>
    </g>
  </g>
</svg>
