<svg xmlns="http://www.w3.org/2000/svg" width="143" height="48" viewBox="0 0 143 48">
  <g id="Group_7080" data-name="Group 7080" transform="translate(-316 -130)">
    <rect id="Rectangle_1550" data-name="Rectangle 1550" width="143" height="48" transform="translate(316 130)" fill="none"/>
    <g id="spolto-blue" transform="translate(307.463 122.223)">
      <path id="Path_826" data-name="Path 826" d="M191.542,47.617a11.073,11.073,0,0,1-.942,4.708,10.358,10.358,0,0,1-2.561,3.471,11.123,11.123,0,0,1-3.722,2.153,13.625,13.625,0,0,1-8.845,0,10.928,10.928,0,0,1-3.707-2.153,10.521,10.521,0,0,1-2.539-3.471,11.073,11.073,0,0,1-.942-4.708,10.838,10.838,0,0,1,.942-4.636,10.335,10.335,0,0,1,2.539-3.434,10.837,10.837,0,0,1,3.7-2.119,13.964,13.964,0,0,1,8.845,0,11.029,11.029,0,0,1,3.722,2.112,10.182,10.182,0,0,1,2.561,3.434,10.837,10.837,0,0,1,.951,4.642ZM179.866,44.28a3.06,3.06,0,0,0-2.389,1.011,3.418,3.418,0,0,0-.91,2.363,3.471,3.471,0,0,0,.942,2.445,3.371,3.371,0,0,0,4.808,0,3.471,3.471,0,0,0,.942-2.445,3.333,3.333,0,0,0-.942-2.363A3.176,3.176,0,0,0,179.866,44.28Z" transform="translate(-103.37 -15.392)" fill="#fff"/>
      <path id="Path_827" data-name="Path 827" d="M366.782,47.617a11.073,11.073,0,0,1-.941,4.708,10.358,10.358,0,0,1-2.561,3.471,11.123,11.123,0,0,1-3.722,2.153,13.625,13.625,0,0,1-8.845,0,10.928,10.928,0,0,1-3.707-2.153,10.521,10.521,0,0,1-2.539-3.471,11.073,11.073,0,0,1-.942-4.708,10.837,10.837,0,0,1,.942-4.636,10.335,10.335,0,0,1,2.539-3.434,10.837,10.837,0,0,1,3.7-2.119,13.964,13.964,0,0,1,8.845,0,11.029,11.029,0,0,1,3.722,2.112,10.182,10.182,0,0,1,2.561,3.434A10.837,10.837,0,0,1,366.782,47.617ZM355.106,44.28a3.051,3.051,0,0,0-2.385,1.011,3.405,3.405,0,0,0-.913,2.363,3.471,3.471,0,0,0,.942,2.445,3.371,3.371,0,0,0,4.808,0,3.471,3.471,0,0,0,.942-2.445,3.333,3.333,0,0,0-.942-2.363,3.176,3.176,0,0,0-2.451-1.011Z" transform="translate(-223.609 -15.392)" fill="#fff"/>
      <path id="Path_828" data-name="Path 828" d="M259.067,41.81V14.984c0-.518-.273-.785-.719-.687l-7.705,1.481c-.414.082-.731.342-.728.728V41.716a.694.694,0,0,0,.756.788h7.765C258.891,42.5,259.067,42.227,259.067,41.81Z" transform="translate(-159.377)" fill="#fff"/>
      <path id="Path_829" data-name="Path 829" d="M110.4,44.2a10.967,10.967,0,0,0-1.767-3.415,8.873,8.873,0,0,0-2.91-2.442,8.424,8.424,0,0,0-4.033-.942,8.085,8.085,0,0,0-3.1.659c-.731.314-1.786,1.212-2.125,1.212H95.79v-.565c0-.421-.185-.744-.6-.753h-7.1a.662.662,0,0,0-.716.716V64.917a.656.656,0,0,0,.822.7l7.592-1.142a.628.628,0,0,0,.474-.725V57.3h.562c.251,0,1.212.778,1.921,1.048a8.273,8.273,0,0,0,2.985.562,8.361,8.361,0,0,0,4.017-.942,8.867,8.867,0,0,0,2.888-2.464,11.123,11.123,0,0,0,1.764-3.471,13.276,13.276,0,0,0,.6-3.958A12.771,12.771,0,0,0,110.4,44.2Zm-8.553,6.343a3.1,3.1,0,0,1-2.483.989,3.327,3.327,0,0,1-2.542-1.007,3.452,3.452,0,0,1-.942-2.445,3.349,3.349,0,0,1,3.493-3.374,3.075,3.075,0,0,1,2.483,1.007,3.553,3.553,0,0,1,.851,2.367A3.641,3.641,0,0,1,101.845,50.548Z" transform="translate(-47.853 -15.869)" fill="#fff"/>
      <path id="Path_830" data-name="Path 830" d="M36.155,48.505a6.1,6.1,0,0,0-1.544-1.962,8.748,8.748,0,0,0-2.178-1.318,12.42,12.42,0,0,0-2.486-.766,15.012,15.012,0,0,1-2.367-.581c-.342-.154-.512-.367-.512-.628a.712.712,0,0,1,.455-.725,3.1,3.1,0,0,1,1.155-.217,6.494,6.494,0,0,1,2.106.37,7.119,7.119,0,0,1,1.529.691.352.352,0,0,0,.455-.1l3.452-4.134a1,1,0,0,0-.27-1.569,15.628,15.628,0,0,0-3.057-1.23,17.306,17.306,0,0,0-5-.744,12.6,12.6,0,0,0-3.161.443,10.423,10.423,0,0,0-3.1,1.362,7.765,7.765,0,0,0-2.354,2.417,6.651,6.651,0,0,0-.942,3.591,5.923,5.923,0,0,0,.578,2.705,6.475,6.475,0,0,0,1.466,1.921,7.564,7.564,0,0,0,1.962,1.255,12.156,12.156,0,0,0,2.106.725,20.8,20.8,0,0,1,2.662.763c.512.207.766.49.766.847a.681.681,0,0,1-.408.665,2.36,2.36,0,0,1-.942.185,6.67,6.67,0,0,1-2.58-.559,6.984,6.984,0,0,1-1.962-1.083.267.267,0,0,0-.373.031l-3.7,4.259a1.023,1.023,0,0,0,.173,1.569,13.628,13.628,0,0,0,3.55,1.456,19.215,19.215,0,0,0,5.521.8,14.026,14.026,0,0,0,3.208-.392,10.072,10.072,0,0,0,3.1-1.281A7.294,7.294,0,0,0,35.813,54.9a6.842,6.842,0,0,0,.926-3.672A6.108,6.108,0,0,0,36.155,48.505Z" transform="translate(0 -14.624)" fill="#fff"/>
      <path id="Path_831" data-name="Path 831" d="M302.687,43.657c-.107.022-.188.038-.314.056a3.766,3.766,0,0,1-.76.047,2.706,2.706,0,0,1-1.764-.524,2.436,2.436,0,0,1-.628-2V35.5l3.675-.339c.367-.031.75-.191.75-.593V30.227c0-.483-.282-.709-.612-.684l-3.832.336V25.66c0-.6-.248-.769-.628-.725l-7.329,1.271a.766.766,0,0,0-.716.763v3.6l-2.263.2c-.433.044-.568.282-.568.691v4.3c0,.414.151.628.628.628l2.241-.21v6.9q0,3.722,1.98,5.489t6.089,1.764a17.575,17.575,0,0,0,2.658-.191,7.935,7.935,0,0,0,.97-.2,1.287,1.287,0,0,0,.989-1.142V44.053a.43.43,0,0,0-.568-.4Z" transform="translate(-185.308 -7.309)" fill="#fff"/>
    </g>
  </g>
</svg>
